<svg width="18" height="18" viewBox="0 0 32 24" fill="none" xmlns="http://www.w3.org/2000/svg">
<path d="M14.6288 21.25H17.2885V16.25H22.6081V13.75H17.2885V8.75H14.6288V13.75H9.30923V16.25H14.6288V21.25ZM15.9587 27.5C14.119 27.5 12.3901 27.1771 10.7721 26.5312C9.15407 25.8646 7.74661 24.9687 6.54971 23.8437C5.35281 22.7187 4.39973 21.3958 3.69045 19.875C3.00334 18.3542 2.65979 16.7292 2.65979 15C2.65979 13.2708 3.00334 11.6458 3.69045 10.125C4.39973 8.60417 5.35281 7.28125 6.54971 6.15625C7.74661 5.03125 9.15407 4.14583 10.7721 3.5C12.3901 2.83333 14.119 2.5 15.9587 2.5C17.7983 2.5 19.5272 2.83333 21.1452 3.5C22.7632 4.14583 24.1707 5.03125 25.3676 6.15625C26.5645 7.28125 27.5065 8.60417 28.1936 10.125C28.9029 11.6458 29.2575 13.2708 29.2575 15C29.2575 16.7292 28.9029 18.3542 28.1936 19.875C27.5065 21.3958 26.5645 22.7187 25.3676 23.8437C24.1707 24.9687 22.7632 25.8646 21.1452 26.5312C19.5272 27.1771 17.7983 27.5 15.9587 27.5ZM15.9587 25C18.9287 25 21.4444 24.0312 23.5058 22.0938C25.5671 20.1562 26.5978 17.7917 26.5978 15C26.5978 12.2083 25.5671 9.84375 23.5058 7.90625C21.4444 5.96875 18.9287 5 15.9587 5C12.9886 5 10.4729 5.96875 8.41155 7.90625C6.35023 9.84375 5.31956 12.2083 5.31956 15C5.31956 17.7917 6.35023 20.1562 8.41155 22.0938C10.4729 24.0312 12.9886 25 15.9587 25Z" fill="#1D1B20"/>
</svg>
