<svg width="271" height="114" viewBox="0 0 271 114" fill="none" xmlns="http://www.w3.org/2000/svg">
<path d="M127 110.5C160.438 110.5 190.865 105.536 213.058 97.3988C224.14 93.3352 233.354 88.4133 239.862 82.7714C246.361 77.1375 250.5 70.4672 250.5 63C250.5 55.5328 246.361 48.8625 239.862 43.2286C233.354 37.5867 224.14 32.6648 213.058 28.6012C190.865 20.4638 160.438 15.5 127 15.5C93.5618 15.5 63.1353 20.4638 40.9423 28.6012C29.8598 32.6648 20.6458 37.5867 14.1376 43.2286C7.63868 48.8625 3.5 55.5328 3.5 63C3.5 70.4672 7.63868 77.1375 14.1376 82.7714C20.6458 88.4133 29.8598 93.3352 40.9423 97.3988C63.1353 105.536 93.5618 110.5 127 110.5Z" fill="#29EB18" stroke="white" stroke-width="7"/>
<mask id="path-2-outside-1_13_86" maskUnits="userSpaceOnUse" x="22.7398" y="26" width="211" height="65" fill="black">
<rect fill="white" x="22.7398" y="26" width="211" height="65"/>
<path d="M24.4998 89.152V79.552H33.2358V37.12H24.4998V27.424H51.6678V37.12H42.8358V79.552H51.6678V89.152H24.4998ZM85.4883 89.152V80.512H76.8483V63.04H68.1123V27.424H77.8083V62.08H86.4483V79.552H94.3203V62.08H102.96V27.424H112.752V63.04H103.92V80.512H95.2803V89.152H85.4883ZM126.256 89.152V44.8H134.992V36.16H143.632V27.424H153.424V36.16H162.064V44.8H170.896V89.152H161.104V71.776H135.952V89.152H126.256ZM135.952 62.08H161.104V45.76H152.464V37.12H144.592V45.76H135.952V62.08ZM187.306 89.152V27.424H197.002V36.16H205.642V44.8H214.474V70.816H222.154V27.424H231.946V89.152H222.154V80.512H213.514V71.776H204.682V45.76H197.002V89.152H187.306Z"/>
</mask>
<g filter="url(#filter0_i_13_86)">
<path d="M24.4998 89.152V79.552H33.2358V37.12H24.4998V27.424H51.6678V37.12H42.8358V79.552H51.6678V89.152H24.4998ZM85.4883 89.152V80.512H76.8483V63.04H68.1123V27.424H77.8083V62.08H86.4483V79.552H94.3203V62.08H102.96V27.424H112.752V63.04H103.92V80.512H95.2803V89.152H85.4883ZM126.256 89.152V44.8H134.992V36.16H143.632V27.424H153.424V36.16H162.064V44.8H170.896V89.152H161.104V71.776H135.952V89.152H126.256ZM135.952 62.08H161.104V45.76H152.464V37.12H144.592V45.76H135.952V62.08ZM187.306 89.152V27.424H197.002V36.16H205.642V44.8H214.474V70.816H222.154V27.424H231.946V89.152H222.154V80.512H213.514V71.776H204.682V45.76H197.002V89.152H187.306Z" fill="white"/>
</g>
<path d="M24.4998 89.152H23.4998V90.152H24.4998V89.152ZM24.4998 79.552V78.552H23.4998V79.552H24.4998ZM33.2358 79.552V80.552H34.2358V79.552H33.2358ZM33.2358 37.12H34.2358V36.12H33.2358V37.12ZM24.4998 37.12H23.4998V38.12H24.4998V37.12ZM24.4998 27.424V26.424H23.4998V27.424H24.4998ZM51.6678 27.424H52.6678V26.424H51.6678V27.424ZM51.6678 37.12V38.12H52.6678V37.12H51.6678ZM42.8358 37.12V36.12H41.8358V37.12H42.8358ZM42.8358 79.552H41.8358V80.552H42.8358V79.552ZM51.6678 79.552H52.6678V78.552H51.6678V79.552ZM51.6678 89.152V90.152H52.6678V89.152H51.6678ZM25.4998 89.152V79.552H23.4998V89.152H25.4998ZM24.4998 80.552H33.2358V78.552H24.4998V80.552ZM34.2358 79.552V37.12H32.2358V79.552H34.2358ZM33.2358 36.12H24.4998V38.12H33.2358V36.12ZM25.4998 37.12V27.424H23.4998V37.12H25.4998ZM24.4998 28.424H51.6678V26.424H24.4998V28.424ZM50.6678 27.424V37.12H52.6678V27.424H50.6678ZM51.6678 36.12H42.8358V38.12H51.6678V36.12ZM41.8358 37.12V79.552H43.8358V37.12H41.8358ZM42.8358 80.552H51.6678V78.552H42.8358V80.552ZM50.6678 79.552V89.152H52.6678V79.552H50.6678ZM51.6678 88.152H24.4998V90.152H51.6678V88.152ZM85.4883 89.152H84.4883V90.152H85.4883V89.152ZM85.4883 80.512H86.4883V79.512H85.4883V80.512ZM76.8483 80.512H75.8483V81.512H76.8483V80.512ZM76.8483 63.04H77.8483V62.04H76.8483V63.04ZM68.1123 63.04H67.1123V64.04H68.1123V63.04ZM68.1123 27.424V26.424H67.1123V27.424H68.1123ZM77.8083 27.424H78.8083V26.424H77.8083V27.424ZM77.8083 62.08H76.8083V63.08H77.8083V62.08ZM86.4483 62.08H87.4483V61.08H86.4483V62.08ZM86.4483 79.552H85.4483V80.552H86.4483V79.552ZM94.3203 79.552V80.552H95.3203V79.552H94.3203ZM94.3203 62.08V61.08H93.3203V62.08H94.3203ZM102.96 62.08V63.08H103.96V62.08H102.96ZM102.96 27.424V26.424H101.96V27.424H102.96ZM112.752 27.424H113.752V26.424H112.752V27.424ZM112.752 63.04V64.04H113.752V63.04H112.752ZM103.92 63.04V62.04H102.92V63.04H103.92ZM103.92 80.512V81.512H104.92V80.512H103.92ZM95.2803 80.512V79.512H94.2803V80.512H95.2803ZM95.2803 89.152V90.152H96.2803V89.152H95.2803ZM86.4883 89.152V80.512H84.4883V89.152H86.4883ZM85.4883 79.512H76.8483V81.512H85.4883V79.512ZM77.8483 80.512V63.04H75.8483V80.512H77.8483ZM76.8483 62.04H68.1123V64.04H76.8483V62.04ZM69.1123 63.04V27.424H67.1123V63.04H69.1123ZM68.1123 28.424H77.8083V26.424H68.1123V28.424ZM76.8083 27.424V62.08H78.8083V27.424H76.8083ZM77.8083 63.08H86.4483V61.08H77.8083V63.08ZM85.4483 62.08V79.552H87.4483V62.08H85.4483ZM86.4483 80.552H94.3203V78.552H86.4483V80.552ZM95.3203 79.552V62.08H93.3203V79.552H95.3203ZM94.3203 63.08H102.96V61.08H94.3203V63.08ZM103.96 62.08V27.424H101.96V62.08H103.96ZM102.96 28.424H112.752V26.424H102.96V28.424ZM111.752 27.424V63.04H113.752V27.424H111.752ZM112.752 62.04H103.92V64.04H112.752V62.04ZM102.92 63.04V80.512H104.92V63.04H102.92ZM103.92 79.512H95.2803V81.512H103.92V79.512ZM94.2803 80.512V89.152H96.2803V80.512H94.2803ZM95.2803 88.152H85.4883V90.152H95.2803V88.152ZM126.256 89.152H125.256V90.152H126.256V89.152ZM126.256 44.8V43.8H125.256V44.8H126.256ZM134.992 44.8V45.8H135.992V44.8H134.992ZM134.992 36.16V35.16H133.992V36.16H134.992ZM143.632 36.16V37.16H144.632V36.16H143.632ZM143.632 27.424V26.424H142.632V27.424H143.632ZM153.424 27.424H154.424V26.424H153.424V27.424ZM153.424 36.16H152.424V37.16H153.424V36.16ZM162.064 36.16H163.064V35.16H162.064V36.16ZM162.064 44.8H161.064V45.8H162.064V44.8ZM170.896 44.8H171.896V43.8H170.896V44.8ZM170.896 89.152V90.152H171.896V89.152H170.896ZM161.104 89.152H160.104V90.152H161.104V89.152ZM161.104 71.776H162.104V70.776H161.104V71.776ZM135.952 71.776V70.776H134.952V71.776H135.952ZM135.952 89.152V90.152H136.952V89.152H135.952ZM135.952 62.08H134.952V63.08H135.952V62.08ZM161.104 62.08V63.08H162.104V62.08H161.104ZM161.104 45.76H162.104V44.76H161.104V45.76ZM152.464 45.76H151.464V46.76H152.464V45.76ZM152.464 37.12H153.464V36.12H152.464V37.12ZM144.592 37.12V36.12H143.592V37.12H144.592ZM144.592 45.76V46.76H145.592V45.76H144.592ZM135.952 45.76V44.76H134.952V45.76H135.952ZM127.256 89.152V44.8H125.256V89.152H127.256ZM126.256 45.8H134.992V43.8H126.256V45.8ZM135.992 44.8V36.16H133.992V44.8H135.992ZM134.992 37.16H143.632V35.16H134.992V37.16ZM144.632 36.16V27.424H142.632V36.16H144.632ZM143.632 28.424H153.424V26.424H143.632V28.424ZM152.424 27.424V36.16H154.424V27.424H152.424ZM153.424 37.16H162.064V35.16H153.424V37.16ZM161.064 36.16V44.8H163.064V36.16H161.064ZM162.064 45.8H170.896V43.8H162.064V45.8ZM169.896 44.8V89.152H171.896V44.8H169.896ZM170.896 88.152H161.104V90.152H170.896V88.152ZM162.104 89.152V71.776H160.104V89.152H162.104ZM161.104 70.776H135.952V72.776H161.104V70.776ZM134.952 71.776V89.152H136.952V71.776H134.952ZM135.952 88.152H126.256V90.152H135.952V88.152ZM135.952 63.08H161.104V61.08H135.952V63.08ZM162.104 62.08V45.76H160.104V62.08H162.104ZM161.104 44.76H152.464V46.76H161.104V44.76ZM153.464 45.76V37.12H151.464V45.76H153.464ZM152.464 36.12H144.592V38.12H152.464V36.12ZM143.592 37.12V45.76H145.592V37.12H143.592ZM144.592 44.76H135.952V46.76H144.592V44.76ZM134.952 45.76V62.08H136.952V45.76H134.952ZM187.306 89.152H186.306V90.152H187.306V89.152ZM187.306 27.424V26.424H186.306V27.424H187.306ZM197.002 27.424H198.002V26.424H197.002V27.424ZM197.002 36.16H196.002V37.16H197.002V36.16ZM205.642 36.16H206.642V35.16H205.642V36.16ZM205.642 44.8H204.642V45.8H205.642V44.8ZM214.474 44.8H215.474V43.8H214.474V44.8ZM214.474 70.816H213.474V71.816H214.474V70.816ZM222.154 70.816V71.816H223.154V70.816H222.154ZM222.154 27.424V26.424H221.154V27.424H222.154ZM231.946 27.424H232.946V26.424H231.946V27.424ZM231.946 89.152V90.152H232.946V89.152H231.946ZM222.154 89.152H221.154V90.152H222.154V89.152ZM222.154 80.512H223.154V79.512H222.154V80.512ZM213.514 80.512H212.514V81.512H213.514V80.512ZM213.514 71.776H214.514V70.776H213.514V71.776ZM204.682 71.776H203.682V72.776H204.682V71.776ZM204.682 45.76H205.682V44.76H204.682V45.76ZM197.002 45.76V44.76H196.002V45.76H197.002ZM197.002 89.152V90.152H198.002V89.152H197.002ZM188.306 89.152V27.424H186.306V89.152H188.306ZM187.306 28.424H197.002V26.424H187.306V28.424ZM196.002 27.424V36.16H198.002V27.424H196.002ZM197.002 37.16H205.642V35.16H197.002V37.16ZM204.642 36.16V44.8H206.642V36.16H204.642ZM205.642 45.8H214.474V43.8H205.642V45.8ZM213.474 44.8V70.816H215.474V44.8H213.474ZM214.474 71.816H222.154V69.816H214.474V71.816ZM223.154 70.816V27.424H221.154V70.816H223.154ZM222.154 28.424H231.946V26.424H222.154V28.424ZM230.946 27.424V89.152H232.946V27.424H230.946ZM231.946 88.152H222.154V90.152H231.946V88.152ZM223.154 89.152V80.512H221.154V89.152H223.154ZM222.154 79.512H213.514V81.512H222.154V79.512ZM214.514 80.512V71.776H212.514V80.512H214.514ZM213.514 70.776H204.682V72.776H213.514V70.776ZM205.682 71.776V45.76H203.682V71.776H205.682ZM204.682 44.76H197.002V46.76H204.682V44.76ZM196.002 45.76V89.152H198.002V45.76H196.002ZM197.002 88.152H187.306V90.152H197.002V88.152Z" fill="#007BFF" fill-opacity="0.63" mask="url(#path-2-outside-1_13_86)"/>
<defs>
<filter id="filter0_i_13_86" x="24.4998" y="27.4238" width="207.446" height="65.728" filterUnits="userSpaceOnUse" color-interpolation-filters="sRGB">
<feFlood flood-opacity="0" result="BackgroundImageFix"/>
<feBlend mode="normal" in="SourceGraphic" in2="BackgroundImageFix" result="shape"/>
<feColorMatrix in="SourceAlpha" type="matrix" values="0 0 0 0 0 0 0 0 0 0 0 0 0 0 0 0 0 0 127 0" result="hardAlpha"/>
<feOffset dy="4"/>
<feGaussianBlur stdDeviation="2"/>
<feComposite in2="hardAlpha" operator="arithmetic" k2="-1" k3="1"/>
<feColorMatrix type="matrix" values="0 0 0 0 0 0 0 0 0 0 0 0 0 0 0 0 0 0 0.25 0"/>
<feBlend mode="normal" in2="shape" result="effect1_innerShadow_13_86"/>
</filter>
</defs>
</svg>
